HIERARCHY
ROOT Hips
{
    OFFSET 0.000000 0.000000 0.000000
    CHANNELS 6 Xposition Yposition Zposition Zrotation Xrotation Yrotation
    JOINT Spine
    {
        OFFSET 0.000001 7.292995 0.000000
        CHANNELS 3 Zrotation Xrotation Yrotation
        JOINT Spine1
        {
            OFFSET -0.000000 20.255388 0.000001
            CHANNELS 3 Zrotation Xrotation Yrotation
            JOINT Neck
            {
                OFFSET 0.000001 20.786594 0.000000
                CHANNELS 3 Zrotation Xrotation Yrotation
                JOINT Head
                {
                    OFFSET 0.000003 12.530788 1.776080
                    CHANNELS 3 Zrotation Xrotation Yrotation
                    End Site
                    {
                        OFFSET 0.000000 17.760757 0.000000
                    }
                }
            }
            JOINT LeftShoulder
            {
                OFFSET 3.550532 15.465697 -0.908801
                CHANNELS 3 Zrotation Xrotation Yrotation
                JOINT LeftArm
                {
                    OFFSET 12.513301 -0.000005 0.000001
                    CHANNELS 3 Zrotation Xrotation Yrotation
                    JOINT LeftForeArm
                    {
                        OFFSET 24.225992 0.000005 0.000000
                        CHANNELS 3 Zrotation Xrotation Yrotation
                        JOINT LeftHand
                        {
                            OFFSET 20.711395 -0.000004 0.000000
                            CHANNELS 3 Zrotation Xrotation Yrotation
                            JOINT LeftHandThumb1
                            {
                                OFFSET 2.121964 -2.411326 3.375861
                                CHANNELS 3 Zrotation Xrotation Yrotation
                                JOINT LeftHandThumb2
                                {
                                    OFFSET 2.803212 -0.000001 -0.000002
                                    CHANNELS 3 Zrotation Xrotation Yrotation
                                    JOINT LeftHandThumb3
                                    {
                                        OFFSET 2.395929 0.000000 0.000000
                                        CHANNELS 3 Zrotation Xrotation Yrotation
                                        End Site
                                        {
                                            OFFSET 2.127676 0.000000 0.000000
                                        }
                                    }
                                }
                            }
                            JOINT LeftHandIndex1
                            {
                                OFFSET 8.680776 0.000004 3.375861
                                CHANNELS 3 Zrotation Xrotation Yrotation
                                JOINT LeftHandIndex2
                                {
                                    OFFSET 4.218180 -0.000002 0.000001
                                    CHANNELS 3 Zrotation Xrotation Yrotation
                                    JOINT LeftHandIndex3
                                    {
                                        OFFSET 2.109090 0.000001 -0.000000
                                        CHANNELS 3 Zrotation Xrotation Yrotation
                                        End Site
                                        {
                                            OFFSET 1.872952 0.000000 0.000000
                                        }
                                    }
                                }
                            }
                            JOINT LeftHandMiddle1
                            {
                                OFFSET 8.680775 0.000001 1.118862
                                CHANNELS 3 Zrotation Xrotation Yrotation
                                JOINT LeftHandMiddle2
                                {
                                    OFFSET 4.640000 0.000002 -0.000000
                                    CHANNELS 3 Zrotation Xrotation Yrotation
                                    JOINT LeftHandMiddle3
                                    {
                                        OFFSET 2.530906 0.000005 0.000000
                                        CHANNELS 3 Zrotation Xrotation Yrotation
                                        End Site
                                        {
                                            OFFSET 2.247544 0.000000 0.000000
                                        }
                                    }
                                }
                            }
                            JOINT LeftHandRing1
                            {
                                OFFSET 8.198514 -0.000004 -1.118859
                                CHANNELS 3 Zrotation Xrotation Yrotation
                                JOINT LeftHandRing2
                                {
                                    OFFSET 4.218182 -0.000003 -0.000001
                                    CHANNELS 3 Zrotation Xrotation Yrotation
                                    JOINT LeftHandRing3
                                    {
                                        OFFSET 2.109086 0.000004 0.000001
                                        CHANNELS 3 Zrotation Xrotation Yrotation
                                        End Site
                                        {
                                            OFFSET 1.872952 0.000000 0.000000
                                        }
                                    }
                                }
                            }
                            JOINT LeftHandPinky1
                            {
                                OFFSET 7.716242 0.000005 -3.375859
                                CHANNELS 3 Zrotation Xrotation Yrotation
                                JOINT LeftHandPinky2
                                {
                                    OFFSET 3.374535 0.000004 0.000002
                                    CHANNELS 3 Zrotation Xrotation Yrotation
                                    JOINT LeftHandPinky3
                                    {
                                        OFFSET 1.687275 0.000002 -0.000001
                                        CHANNELS 3 Zrotation Xrotation Yrotation
                                        End Site
                                        {
                                            OFFSET 1.498360 0.000000 0.000000
                                        }
                                    }
                                }
                            }
                        }
                    }
                }
            }
            JOINT RightShoulder
            {
                OFFSET -3.550531 15.465694 -0.908802
                CHANNELS 3 Zrotation Xrotation Yrotation
                JOINT RightArm
                {
                    OFFSET -12.513298 -0.000004 0.000001
                    CHANNELS 3 Zrotation Xrotation Yrotation
                    JOINT RightForeArm
                    {
                        OFFSET -24.225996 -0.000002 -0.000000
                        CHANNELS 3 Zrotation Xrotation Yrotation
                        JOINT RightHand
                        {
                            OFFSET -20.711401 0.000005 0.000001
                            CHANNELS 3 Zrotation Xrotation Yrotation
                            JOINT RightHandThumb1
                            {
                                OFFSET -2.121970 -2.411334 3.375861
                                CHANNELS 3 Zrotation Xrotation Yrotation
                                JOINT RightHandThumb2
                                {
                                    OFFSET -2.803210 0.000003 -0.000004
                                    CHANNELS 3 Zrotation Xrotation Yrotation
                                    JOINT RightHandThumb3
                                    {
                                        OFFSET -2.395930 -0.000001 0.000002
                                        CHANNELS 3 Zrotation Xrotation Yrotation
                                        End Site
                                        {
                                            OFFSET -2.127676 0.000000 0.000000
                                        }
                                    }
                                }
                            }
                            JOINT RightHandIndex1
                            {
                                OFFSET -8.680779 0.000001 3.375860
                                CHANNELS 3 Zrotation Xrotation Yrotation
                                JOINT RightHandIndex2
                                {
                                    OFFSET -4.218180 0.000000 -0.000000
                                    CHANNELS 3 Zrotation Xrotation Yrotation
                                    JOINT RightHandIndex3
                                    {
                                        OFFSET -2.109090 0.000001 -0.000000
                                        CHANNELS 3 Zrotation Xrotation Yrotation
                                        End Site
                                        {
                                            OFFSET -1.872952 0.000000 0.000000
                                        }
                                    }
                                }
                            }
                            JOINT RightHandMiddle1
                            {
                                OFFSET -8.680780 0.000001 1.118860
                                CHANNELS 3 Zrotation Xrotation Yrotation
                                JOINT RightHandMiddle2
                                {
                                    OFFSET -4.640000 -0.000002 0.000001
                                    CHANNELS 3 Zrotation Xrotation Yrotation
                                    JOINT RightHandMiddle3
                                    {
                                        OFFSET -2.530910 0.000001 -0.000000
                                        CHANNELS 3 Zrotation Xrotation Yrotation
                                        End Site
                                        {
                                            OFFSET -2.247544 0.000000 0.000000
                                        }
                                    }
                                }
                            }
                            JOINT RightHandRing1
                            {
                                OFFSET -8.198519 0.000005 -1.118860
                                CHANNELS 3 Zrotation Xrotation Yrotation
                                JOINT RightHandRing2
                                {
                                    OFFSET -4.218180 -0.000006 0.000000
                                    CHANNELS 3 Zrotation Xrotation Yrotation
                                    JOINT RightHandRing3
                                    {
                                        OFFSET -2.109090 0.000001 -0.000000
                                        CHANNELS 3 Zrotation Xrotation Yrotation
                                        End Site
                                        {
                                            OFFSET -1.872952 0.000000 0.000000
                                        }
                                    }
                                }
                            }
                            JOINT RightHandPinky1
                            {
                                OFFSET -7.716248 -0.000002 -3.375859
                                CHANNELS 3 Zrotation Xrotation Yrotation
                                JOINT RightHandPinky2
                                {
                                    OFFSET -3.374540 0.000000 0.000000
                                    CHANNELS 3 Zrotation Xrotation Yrotation
                                    JOINT RightHandPinky3
                                    {
                                        OFFSET -1.687270 0.000004 0.000001
                                        CHANNELS 3 Zrotation Xrotation Yrotation
                                        End Site
                                        {
                                            OFFSET -1.498360 0.000000 0.000000
                                        }
                                    }
                                }
                            }
                        }
                    }
                }
            }
        }
    }
    JOINT LeftUpLeg
    {
        OFFSET 8.880376 -0.000000 -0.000000
        CHANNELS 3 Zrotation Xrotation Yrotation
        JOINT LeftLeg
        {
            OFFSET -0.000001 -40.387405 -0.000001
            CHANNELS 3 Zrotation Xrotation Yrotation
            JOINT LeftFoot
            {
                OFFSET -0.000001 -36.911297 -0.000001
                CHANNELS 3 Zrotation Xrotation Yrotation
                JOINT LeftToeBase
                {
                    OFFSET -0.000002 -5.772240 13.320604
                    CHANNELS 3 Zrotation Xrotation Yrotation
                    End Site
                    {
                        OFFSET 0.000000 0.000000 3.552151
                    }
                }
            }
        }
    }
    JOINT RightUpLeg
    {
        OFFSET -8.880376 0.000000 0.000000
        CHANNELS 3 Zrotation Xrotation Yrotation
        JOINT RightLeg
        {
            OFFSET -0.000001 -40.387390 0.000000
            CHANNELS 3 Zrotation Xrotation Yrotation
            JOINT RightFoot
            {
                OFFSET 0.000002 -36.911297 -0.000001
                CHANNELS 3 Zrotation Xrotation Yrotation
                JOINT RightToeBase
                {
                    OFFSET 0.000001 -5.772238 13.320600
                    CHANNELS 3 Zrotation Xrotation Yrotation
                    End Site
                    {
                        OFFSET 0.000000 0.000000 3.552151
                    }
                }
            }
        }
    }
}
MOTION
Frames: 4
Frame Time: 0.013889
-15.944012    83.182106    -1.740806    6.498457    7.879755    -0.393213    0.039866    -20.476940    0.113960    3.845437    15.470690    -0.924092    -3.683453    -8.586599    1.419736    1.448915    2.877953    1.913614    0.501206    6.744830    -2.778055    -50.546619    54.592030    -27.633247    -18.440920    -27.206509    -36.104427    -1.746022    -6.426589    10.548882    32.490791    33.448589    -43.368618    -13.297949    -0.599075    23.310204    -0.000000    0.000000    -0.000000    -3.595138    17.966808    1.134583    -3.419609    0.000002    -0.000005    -3.419599    -0.000005    0.000003    -4.637753    8.971020    0.736875    -4.580901    -0.000005    -0.000000    -4.580894    0.000003    -0.000002    -5.225528    -8.963207    -0.617937    -5.161551    0.000002    0.000001    -5.161550    0.000002    -0.000002    -6.035591    -17.906563    -1.465152    -5.742189    -0.000000    0.000002    -5.742189    -0.000000    0.000002    9.020660    5.988799    4.289320    56.965809    35.581932    11.727633    10.428885    -33.959709    18.236452    -1.433190    -11.547393    -7.221405    -37.748833    29.944271    42.287903    13.548813    -0.707152    -23.307356    -0.000000    0.000000    -0.000000    12.481024    17.601122    -0.015157    11.887983    0.000000    0.000002    11.887975    -0.000000    0.000005    11.119161    8.833749    0.178267    10.985622    0.000000    0.000001    10.985617    -0.000004    0.000002    10.662744    -8.847083    1.622329    10.534439    -0.000001    -0.000001    10.534443    -0.000007    -0.000004    10.590693    -17.712645    3.183218    10.083244    0.000002    0.000003    10.083272    -0.000011    -0.000008    -6.362215    -14.406375    3.719915    0.000000    28.740162    -0.000001    1.105356    -5.312664    2.647837    0.000000    -1.478487    0.000001    -4.511835    -12.332345    -6.213170    0.000001    22.914711    -0.000001    1.084912    -17.116495    2.867488    0.000000    4.424410    -0.000000    
-15.868818    83.218956    -1.661654    6.791259    7.735195    -0.293777    0.022787    -20.290230    0.065706    3.919381    15.481502    -0.988194    -3.759598    -8.612336    1.478863    1.510980    2.913710    1.982283    0.773658    6.730460    -2.794973    -48.252922    56.047829    -29.493877    -19.854021    -27.574080    -37.956497    -1.184478    -6.675016    11.285984    32.425968    33.501114    -43.317982    -13.296257    -0.598337    23.310219    -0.000000    0.000000    -0.000000    -3.045435    17.976170    1.758052    -2.896629    0.000000    -0.000002    -2.896628    -0.000000    0.000007    -4.281041    8.975301    1.077784    -4.228532    -0.000002    0.000002    -4.228531    0.000000    -0.000002    -4.955190    -8.966914    -0.520844    -4.894472    -0.000000    0.000003    -4.894481    -0.000002    -0.000003    -5.844642    -17.912382    -1.296502    -5.560433    0.000001    -0.000003    -5.560416    -0.000002    0.000001    9.050706    6.004890    4.405898    56.838081    35.412380    11.584046    10.333106    -33.866982    18.117193    -0.943333    -12.117585    -6.589399    -37.475132    30.206629    41.941006    13.676504    -0.762155    -23.305714    -0.000000    0.000000    -0.000000    13.017635    17.566156    0.222094    12.400677    -0.000002    -0.000003    12.400702    0.000004    0.000001    11.408603    8.825005    0.333518    11.271770    -0.000002    0.000002    11.271737    0.000002    -0.000001    10.837603    -8.842039    1.646319    10.707290    -0.000002    0.000000    10.707290    0.000006    0.000001    10.653119    -17.709248    3.196419    10.142814    -0.000001    0.000002    10.142824    0.000002    0.000003    -6.752476    -14.995363    3.035290    0.000000    30.185715    -0.000001    0.624535    -4.569525    2.747659    -0.000000    -1.657973    -0.000000    -4.944742    -12.199911    -6.608262    -0.000001    23.100948    0.000001    1.133615    -17.179934    3.096557    -0.000001    4.382344    0.000000    
-15.818983    83.226707    -1.635056    6.984642    7.662495    -0.223967    0.010642    -20.123335    0.030930    4.004255    15.467908    -1.041499    -3.806182    -8.693017    1.516000    1.585950    2.904687    2.028976    0.969286    6.704008    -2.759069    -46.329361    57.003735    -30.990765    -20.989231    -27.709166    -39.525349    -0.998274    -6.726238    11.770944    32.397461    33.526134    -43.275589    -13.282629    -0.592475    23.310373    -0.000000    0.000000    -0.000000    -2.790220    17.979992    2.212759    -2.653855    -0.000007    0.000002    -2.653865    0.000007    -0.000002    -4.075049    8.977625    1.312377    -4.025035    -0.000002    -0.000000    -4.025039    -0.000002    -0.000000    -4.769082    -8.969354    -0.446958    -4.710632    0.000000    -0.000002    -4.710616    -0.000002    0.000006    -5.672170    -17.917471    -1.153696    -5.396212    0.000001    0.000002    -5.396220    -0.000000    0.000001    9.086893    5.995387    4.532452    56.708580    35.302570    11.483931    10.263041    -33.785919    18.035368    -0.540611    -12.447396    -6.286793    -37.357613    30.335951    41.708904    13.737130    -0.788269    -23.304893    -0.000000    0.000000    -0.000000    13.518633    17.532196    0.386661    12.879606    -0.000000    0.000004    12.879589    -0.000000    -0.000002    11.679236    8.816629    0.449832    11.539306    0.000002    -0.000001    11.539336    -0.000000    0.000004    11.001385    -8.837243    1.647495    10.869186    0.000001    -0.000000    10.869202    -0.000003    -0.000001    10.712060    -17.706034    3.166360    10.199054    0.000001    -0.000000    10.199053    -0.000004    -0.000001    -7.048103    -15.387044    2.550161    0.000000    30.997141    -0.000001    0.356796    -4.282209    3.018563    0.000000    -1.886149    0.000001    -5.234626    -12.186238    -6.861331    -0.000000    23.297985    0.000000    1.247214    -17.303436    3.265165    0.000000    4.351155    -0.000000    
-15.760411    83.235390    -1.602431    7.172248    7.594223    -0.153256    0.005265    -19.974781    0.015410    4.100809    15.457306    -1.080696    -3.856778    -8.757432    1.553890    1.688011    2.896956    2.074650    1.171984    6.664737    -2.712512    -44.329353    57.833290    -32.550522    -22.359142    -27.896076    -41.320950    -0.782476    -6.902456    12.433087    32.420155    33.509346    -43.277405    -13.242125    -0.575011    23.310778    -0.000000    0.000000    -0.000000    -2.549889    17.983280    2.692189    -2.425244    0.000002    -0.000002    -2.425246    -0.000002    -0.000000    -3.865230    8.979872    1.556444    -3.817779    0.000002    0.000000    -3.817778    0.000002    0.000000    -4.570088    -8.971848    -0.370510    -4.514042    -0.000000    0.000002    -4.514056    -0.000002    -0.000000    -5.476872    -17.923042    -1.002762    -5.210313    0.000001    -0.000001    -5.210310    -0.000001    0.000002    9.126291    5.988825    4.638870    56.579659    35.164818    11.329960    10.251252    -33.798992    18.009813    -0.002975    -12.746964    -5.993117    -37.382618    30.347244    41.583176    13.736417    -0.787951    -23.304893    -0.000000    0.000000    -0.000000    14.062043    17.493916    0.601002    13.399190    0.000005    -0.000004    13.399201    -0.000000    -0.000002    12.004117    8.806315    0.589000    11.860527    -0.000002    0.000000    11.860519    0.000006    -0.000005    11.225955    -8.830546    1.659128    11.091183    0.000002    -0.000002    11.091192    0.000003    -0.000001    10.840749    -17.698935    3.159786    10.321855    0.000001    -0.000002    10.321850    0.000003    -0.000000    -7.351508    -15.804872    2.086298    -0.000000    31.819960    0.000001    0.173551    -3.906146    3.309745    -0.000000    -1.956636    0.000001    -5.524726    -12.195418    -7.070410    -0.000000    23.539869    0.000000    1.409501    -17.419109    3.398294    0.000000    4.370030    -0.000001    
